HIERARCHY
ROOT Hips
{
	OFFSET 0.000000 0.000000 0.000000
	CHANNELS 6 Xposition Yposition Zposition Zrotation Yrotation Xrotation 
	JOINT LHipJoint
	{
		OFFSET 0.000000 0.000000 0.000000
		CHANNELS 3 Zrotation Yrotation Xrotation
		JOINT LeftUpLeg
		{
			OFFSET 1.363060 -1.794630 0.839290
			CHANNELS 3 Zrotation Yrotation Xrotation
			JOINT LeftLeg
			{
				OFFSET 2.448110 -6.726130 0.000000
				CHANNELS 3 Zrotation Yrotation Xrotation
				JOINT LeftFoot
				{
					OFFSET 2.562200 -7.039590 0.000000
					CHANNELS 3 Zrotation Yrotation Xrotation
					JOINT LeftToeBase
					{
						OFFSET 0.157640 -0.433110 2.322550
						CHANNELS 3 Zrotation Yrotation Xrotation
						End Site
						{
							OFFSET 0.000000 0.000000 0.000000
						}
					}
				}
			}
		}
	}
	JOINT RHipJoint
	{
		OFFSET 0.000000 0.000000 0.000000
		CHANNELS 3 Zrotation Yrotation Xrotation
		JOINT RightUpLeg
		{
			OFFSET -1.305520 -1.794630 0.839290
			CHANNELS 3 Zrotation Yrotation Xrotation
			JOINT RightLeg
			{
				OFFSET -2.542530 -6.985550 0.000000
				CHANNELS 3 Zrotation Yrotation Xrotation
				JOINT RightFoot
				{
					OFFSET -2.568260 -7.056230 0.000000
					CHANNELS 3 Zrotation Yrotation Xrotation
					JOINT RightToeBase
					{
						OFFSET -0.164730 -0.452590 2.363150
						CHANNELS 3 Zrotation Yrotation Xrotation
						End Site
						{
							OFFSET 0.000000 0.000000 0.000000
						}
					}
				}
			}
		}
	}
}
MOTION
Frames: 11
Frame Time: 0.008333
4.824575 16.965155 -2.758942 -172.189605 22.971376 -154.062397 -14.017635 3.678717 7.116347 -8.570774 -23.286261 1.128190 0.255993 1.056537 17.027934 0.140669 -5.478050 15.296717 -2.018100 0.000001 -16.628700 4.817588 -2.491008 3.623822 13.804899 2.851980 -35.448570 5.241768 0.434788 11.386931 1.410149 7.747722 1.500942 0.761800 0.000000 -55.633500
4.924547 16.918071 -2.907512 -172.291666 22.704924 -154.528722 -14.169828 3.832121 6.820898 -8.685821 -21.091698 1.131649 0.321503 1.110353 18.163154 0.204758 -5.910126 16.567384 -2.333499 0.000000 -20.830400 4.824999 -2.567301 3.656057 13.632184 3.348303 -35.548354 5.027200 0.144609 13.997743 1.278834 7.475965 -0.124759 0.602600 -0.000000 -52.703399
5.021904 16.871271 -3.056307 -172.410067 22.498475 -155.021279 -14.325829 3.980547 6.495266 -8.786275 -18.727417 1.003762 0.389317 1.163461 19.439228 0.287310 -6.328099 17.996550 -2.684700 -0.000000 -24.638700 4.849014 -2.621970 3.659233 13.422411 3.798313 -35.644270 4.782656 -0.155381 16.846844 1.115686 7.121950 -1.971969 0.436900 0.000000 -49.790999
5.116339 16.825836 -3.205050 -172.539382 22.342991 -155.533352 -14.485055 4.119670 6.142658 -8.859989 -16.233913 0.745224 0.456767 1.214642 20.867130 0.388620 -6.673001 19.510452 -3.040600 0.000000 -27.615900 4.886144 -2.655175 3.635670 13.199396 4.183630 -35.675538 4.525764 -0.441934 19.739800 0.931693 6.710923 -3.906353 0.285500 0.000000 -47.163900
5.207507 16.782875 -3.353413 -172.672144 22.229376 -156.056153 -14.645939 4.244958 5.769583 -8.901926 -13.676464 0.368429 0.524648 1.263691 22.436395 0.511951 -6.851717 21.097757 -3.355800 0.000000 -30.132000 4.931370 -2.670621 3.588109 12.985727 4.490534 -35.592107 4.274816 -0.697410 22.501151 0.738984 6.268432 -5.811692 0.161900 0.000000 -45.058500
5.295114 16.743536 -3.501244 -172.796088 22.146997 -156.574132 -14.808372 4.351664 5.381565 -8.898822 -11.108483 -0.130444 0.589729 1.310306 24.154990 0.653595 -6.791923 22.652191 -3.571400 -0.000000 -31.971899 4.977072 -2.675422 3.523837 12.805650 4.721041 -35.360160 4.045750 -0.909579 24.982919 0.547532 5.809069 -7.596847 0.071100 0.000000 -43.630500
5.379136 16.708778 -3.648477 -172.900693 22.081823 -157.070344 -14.971081 4.435934 4.986244 -8.842315 -8.589487 -0.757352 0.648871 1.355446 26.027675 0.808109 -6.429818 24.062673 -3.625100 0.000000 -33.068700 5.016135 -2.676843 3.450644 12.677879 4.881506 -34.967536 3.849538 -1.072737 27.083571 0.364725 5.345486 -9.203890 0.013100 0.000000 -42.923001
5.459814 16.679325 -3.794769 -172.987070 22.017533 -157.537854 -15.128223 4.495415 4.591908 -8.742339 -6.184006 -1.505596 0.699650 1.401677 28.047781 0.970486 -5.710878 25.240914 -3.462000 0.000000 -33.626000 5.046414 -2.679267 3.371592 12.607173 4.967876 -34.416028 3.690956 -1.187363 28.756409 0.196298 4.897134 -10.607924 -0.015800 -0.000001 -42.857999
5.537697 16.655666 -3.939886 -173.062334 21.934724 -157.972018 -15.272338 4.529550 4.207456 -8.615253 -3.950059 -2.371255 0.740114 1.452680 30.207640 1.134597 -4.617317 26.092947 -3.051000 0.000000 -33.778700 5.068804 -2.685091 3.289785 12.587168 4.976542 -33.719953 3.570169 -1.256572 29.990863 0.045216 4.477646 -11.805203 -0.021700 -0.000000 -43.266500
5.613344 16.637963 -4.083514 -173.137172 21.812835 -158.376042 -15.395746 4.539401 3.839692 -8.480744 -1.932298 -3.343926 0.769825 1.513180 32.494454 1.294661 -3.172709 26.539377 -2.397900 0.000000 -33.652200 5.086321 -2.695049 3.206045 12.604068 4.903823 -32.892680 3.484069 -1.285138 30.803505 -0.087523 4.095372 -12.805178 -0.010900 -0.000000 -43.931800
5.687596 16.626179 -4.225479 -173.229779 21.631700 -158.751223 -15.489758 4.528060 3.497941 -8.365173 -0.169209 -4.422017 0.790009 1.587081 34.890892 1.445571 -1.440308 26.523624 -1.547500 0.000000 -33.333600 5.105902 -2.708348 3.123014 12.632892 4.745199 -31.963437 3.426753 -1.278830 31.235053 -0.202075 3.754434 -13.624599 0.010400 -0.000000 -44.643800
